<svg width="199" height="119" viewBox="0 0 199 119" fill="none" xmlns="http://www.w3.org/2000/svg">
<g clip-path="url(#clip0_231_60)">
<path d="M169.099 16.7767C152.149 6.93678 130.164 1.11658 106.574 0.15353C105.104 0.0697865 103.624 0 102.131 0C101.915 0 101.698 0 101.482 0.0139573C100.821 0.0139573 100.161 0 99.5 0C73.2552 0 48.5369 5.95977 29.9013 16.7767C10.6164 27.9704 0 43.142 0 59.5C0 75.858 10.6164 91.0435 29.9013 102.223C48.5369 113.04 73.2552 119 99.5 119C100.161 119 100.821 119 101.482 118.986C101.698 118.986 101.915 119 102.131 119C103.624 119 105.104 118.944 106.574 118.846C130.164 117.869 152.149 112.063 169.099 102.223C188.384 91.0295 199 75.858 199 59.5C199 43.142 188.384 27.9565 169.099 16.7767ZM123.569 59.5C123.569 87.7217 114.035 111.617 102.633 112.314C102.382 112.314 102.131 112.314 101.869 112.328C90.3645 111.979 80.6821 87.931 80.6821 59.5C80.6821 31.069 90.3645 7.03448 101.869 6.67159C102.12 6.67159 102.371 6.67159 102.633 6.68555C114.035 7.36946 123.569 31.2644 123.569 59.5ZM75.2487 59.5C75.2487 59.7233 75.2487 59.9466 75.2487 60.1699C75.374 86.9819 42.7275 88.6987 41.3264 61.9425C41.2808 61.133 41.258 60.3235 41.258 59.514C41.258 34.4466 61.4542 13.413 88.4622 8.01149C80.4885 18.2282 75.2373 37.252 75.2373 59.514L75.2487 59.5ZM129.003 59.5C129.003 59.2767 129.003 59.0534 129.003 58.83C128.877 32.0181 161.524 30.3013 162.925 57.0575C162.97 57.867 162.993 58.6765 162.993 59.486C162.993 84.5534 142.797 105.587 115.789 110.988C123.763 100.772 129.014 81.7479 129.014 59.486L129.003 59.5ZM32.225 96.2077C14.9449 86.1864 5.43349 73.1502 5.43349 59.5C5.43349 45.8498 14.9563 32.8136 32.225 22.7923C38.8318 18.968 46.2359 15.7718 54.2437 13.2594C56.0891 12.6732 57.2168 15.6461 55.6676 17.014L55.5879 17.0837C42.8528 28.3333 35.8359 43.4072 35.8359 59.5C35.8359 75.5928 42.8528 90.6667 55.5879 101.916L55.6676 101.986C57.2168 103.354 56.1005 106.313 54.2437 105.741C46.2473 103.228 38.8318 100.032 32.225 96.2077ZM166.764 96.2077C161.49 99.2644 155.692 101.93 149.495 104.149C148.401 104.54 147.695 102.782 148.618 101.972L148.675 101.93C161.41 90.6806 168.427 75.6067 168.427 59.514C168.427 43.4212 161.41 28.3473 148.675 17.0977L148.618 17.0558C147.695 16.2463 148.401 14.4877 149.495 14.8785C155.692 17.0977 161.49 19.7635 166.764 22.8202C184.044 32.8415 193.555 45.8777 193.555 59.5279C193.555 73.1782 184.044 86.2143 166.764 96.2356V96.2077Z" fill="black"/>
</g>
<defs>
<clipPath id="clip0_231_60">
<rect width="199" height="119" fill="white"/>
</clipPath>
</defs>
</svg>
