<?xml version="1.0" encoding="UTF-8"?>
<svg id="Layer_1" data-name="Layer 1" xmlns="http://www.w3.org/2000/svg" viewBox="0 0 1447.3 305.18">
  <defs>
    <style>
      .cls-1 {
        fill: #e5e5e5;
      }
    </style>
  </defs>
  <path class="cls-1" d="M128.61,194.63c6.05,11.18,8.61,15.76,22.72,15.76v4.03h-4.76c-19.6,0-22.17-2.75-29.86-18.14l-26.38-51.66h-3.3c-4.58,0-8.61-.37-12.46-.92v53.13c0,11.18,1.65,13.74,19.05,13.74v3.85h-49.28v-3.85c17.4,0,19.05-2.56,19.05-13.74v-111.39c0-11.18-1.65-13.74-19.05-13.74v-3.85h48.37c28.76,0,42.69,13.92,42.69,36.64s-14.84,35.72-36.09,39.21c3.3,2.02,5.86,5.5,9.89,13.74l19.42,37.19ZM74.57,137.29c4.03.92,8.43,1.28,13.19,1.28,21.25,0,35.72-9.89,35.72-32.79,0-20.52-11.73-31.69-32.43-31.69-4.4,0-8.79.55-13.01,1.83-2.38.92-3.48,2.75-3.48,5.13v56.24Z"/>
  <path class="cls-1" d="M203.55,175.76c-2.93,29.13-14.84,41.59-29.5,41.59-18.87,0-29.86-20.7-29.86-49.65s11.36-52.76,30.6-52.76c17.59,0,27.66,18.5,27.66,45.8h-47.63v3.48c0,24,8.06,43.79,22.53,43.79,8.43,0,18.14-7.14,22.35-32.24h3.85ZM155.18,154.51h36.46c0-16.67-4.4-33.34-16.67-33.34s-18.14,15.39-19.79,33.34Z"/>
  <path class="cls-1" d="M226.82,196.83c0,11.36,1.28,13.74,11.91,13.74v3.85h-34.26v-3.85c10.81,0,12.09-2.38,12.09-13.74v-111.75c0-11.36.18-13.37-10.44-8.43l-1.65-3.66,13.92-6.23,6.41-2.75,2.02,2.02v130.81Z"/>
  <path class="cls-1" d="M299.19,175.76c-2.93,29.13-14.84,41.59-29.5,41.59-18.87,0-29.86-20.7-29.86-49.65s11.36-52.76,30.6-52.76c17.59,0,27.66,18.5,27.66,45.8h-47.63v3.48c0,24,8.06,43.79,22.53,43.79,8.43,0,18.14-7.14,22.35-32.24h3.85ZM250.83,154.51h36.46c0-16.67-4.4-33.34-16.67-33.34s-18.14,15.39-19.79,33.34Z"/>
  <path class="cls-1" d="M374.31,195c-.18,12.46-3.3,22.35-13.19,22.35-8.24,0-13.01-6.6-13.01-20.15v-7.33c-4.95,18.14-14.29,27.48-26.2,27.48s-18.69-9.71-18.69-21.25c0-22.72,24.73-33.34,44.88-43.05v-10.44c0-15.94-5.86-21.62-15.57-21.62-7.88,0-13.92,3.85-13.92,10.63,0,4.4,2.56,6.05,2.56,9.89s-2.2,6.41-6.23,6.41c-4.95,0-7.51-4.21-7.51-10.08,0-12.82,11.54-23.08,26.93-23.08,13.74,0,23.82,8.24,23.82,27.66v56.24c0,10.08,2.38,12.27,5.31,12.27,3.85,0,6.78-3.66,6.96-15.94h3.85ZM348.12,180.16v-21.8c-16.49,8.79-34.26,17.77-34.26,35.18,0,8.24,3.66,14.47,11.18,14.47,8.24,0,17.4-7.88,23.08-27.85Z"/>
  <path class="cls-1" d="M383.48,210.94c-2.38-1.83-3.85-1.28-4.76.92l-1.28,3.66h-3.66l-.92-38.47h3.48c2.38,23.08,12.64,34.08,24.37,34.08,9.16,0,13.92-6.96,13.92-17.22,0-9.34-4.21-13.19-20.89-27.85-14.66-12.64-19.79-18.87-19.79-28.76,0-13.01,8.98-22.35,21.98-22.35,7.69,0,12.82,3.48,15.76,6.05,2.38,2.2,4.21,1.28,4.58-.92l.73-3.85h3.66l.37,30.78h-3.66c-1.47-14.29-8.43-25.83-20.7-25.83-7.88,0-13.56,5.68-13.56,14.11s5.5,13.19,17.4,23.27c16.31,13.92,23.45,21.62,23.45,34.26,0,16.31-10.44,24.55-22.53,24.55-8.06,0-14.47-3.66-17.95-6.41Z"/>
  <path class="cls-1" d="M488.09,175.76c-2.93,29.13-14.84,41.59-29.5,41.59-18.87,0-29.86-20.7-29.86-49.65s11.36-52.76,30.6-52.76c17.59,0,27.66,18.5,27.66,45.8h-47.63v3.48c0,24,8.06,43.79,22.53,43.79,8.43,0,18.14-7.14,22.35-32.24h3.85ZM439.73,154.51h36.46c0-16.67-4.4-33.34-16.67-33.34s-18.14,15.39-19.79,33.34Z"/>
  <path class="cls-1" d="M521.26,214.42v-3.85c17.4,0,19.05-2.56,19.05-13.74v-111.39c0-11.18-1.65-13.74-19.05-13.74v-3.85h47.63c24.37,0,42.14,11.54,42.14,36.27,0,20.15-12.82,32.43-29.86,34.63v.55c21.43,1.47,37.01,15.94,37.01,35.91,0,29.5-24.37,39.21-51.11,39.21h-45.8ZM551.48,135.46c5.31.73,10.81.73,16.31.73,15.57,0,31.69-9.53,31.69-31.88s-16.12-30.23-31.69-30.23c-4.21,0-8.43.18-12.27.92-2.75.55-4.03,2.2-4.03,4.95v55.51ZM551.48,202.33c0,4.76,5.13,5.86,14.84,5.86,18.87,0,39.94-6.41,39.94-32.79s-24.55-32.98-38.47-32.98c-5.68,0-10.99,0-16.31.73v59.17Z"/>
  <path class="cls-1" d="M681.75,175.76c-2.93,29.13-14.84,41.59-29.5,41.59-18.87,0-29.86-20.7-29.86-49.65s11.36-52.76,30.6-52.76c17.59,0,27.66,18.5,27.66,45.8h-47.63v3.48c0,24,8.06,43.79,22.53,43.79,8.43,0,18.14-7.14,22.35-32.24h3.85ZM633.38,154.51h36.46c0-16.67-4.4-33.34-16.67-33.34s-18.14,15.39-19.79,33.34Z"/>
  <path class="cls-1" d="M745.87,76.1c0,3.3-2.2,6.23-6.23,6.23-3.66,0-5.5-2.93-8.06-6.6-3.11-4.58-4.95-6.05-8.61-6.05-8.43,0-14.66,7.33-14.66,29.86v18.5h19.79v6.23h-19.79v72.55c0,11.36,2.02,13.74,17.77,13.74v3.85h-40.85v-3.85c11.54,0,13.01-2.38,13.01-13.74v-72.55h-11.91v-4.58l11.91-1.28v-17.77c0-27.11,12.64-37.56,27.3-37.56,11.36,0,20.34,6.6,20.34,13.01Z"/>
  <path class="cls-1" d="M726.46,166.6c0-28.4,12.46-51.66,34.44-51.66,20.15,0,34.26,21.98,34.26,50.75s-12.46,51.66-34.26,51.66c-20.34,0-34.44-21.98-34.44-50.75ZM784.53,173.56c0-24.92-8.61-52.21-26.01-52.21-15.02,0-21.43,18.87-21.43,37.56,0,24.92,8.61,52.03,26.2,52.03,14.84,0,21.25-18.87,21.25-37.37Z"/>
  <path class="cls-1" d="M850.68,122.08c0,5.31-3.48,8.24-6.6,8.24-2.56,0-3.85-1.1-5.5-2.93-1.83-1.83-2.75-2.56-4.76-2.56-4.21,0-9.16,5.68-14.11,17.95v53.68c0,11.73,2.02,13.92,18.14,13.92v4.03h-39.94v-3.85c10.44,0,11.91-2.38,11.91-13.74v-61.01c0-11.54,0-13.56-10.63-9.34l-1.47-3.48,19.79-8.06,2.2,2.02v16.31h.55c5.13-10.26,13.01-18.32,21.98-18.32,5.31,0,8.43,2.93,8.43,7.14Z"/>
  <path class="cls-1" d="M908.39,175.76c-2.93,29.13-14.84,41.59-29.5,41.59-18.87,0-29.86-20.7-29.86-49.65s11.36-52.76,30.6-52.76c17.59,0,27.66,18.5,27.66,45.8h-47.63v3.48c0,24,8.06,43.79,22.53,43.79,8.43,0,18.14-7.14,22.35-32.24h3.85ZM860.03,154.51h36.46c0-16.67-4.4-33.34-16.67-33.34s-18.14,15.39-19.79,33.34Z"/>
  <path class="cls-1" d="M1025.83,194.63c6.05,11.18,8.61,15.76,22.72,15.76v4.03h-4.76c-19.6,0-22.17-2.75-29.86-18.14l-26.38-51.66h-3.3c-4.58,0-8.61-.37-12.46-.92v53.13c0,11.18,1.65,13.74,19.05,13.74v3.85h-49.28v-3.85c17.4,0,19.05-2.56,19.05-13.74v-111.39c0-11.18-1.65-13.74-19.05-13.74v-3.85h48.37c28.76,0,42.69,13.92,42.69,36.64s-14.84,35.72-36.09,39.21c3.3,2.02,5.86,5.5,9.89,13.74l19.42,37.19ZM971.79,137.29c4.03.92,8.43,1.28,13.19,1.28,21.25,0,35.72-9.89,35.72-32.79,0-20.52-11.73-31.69-32.43-31.69-4.4,0-8.79.55-13.01,1.83-2.38.92-3.48,2.75-3.48,5.13v56.24Z"/>
  <path class="cls-1" d="M1100.77,175.76c-2.93,29.13-14.84,41.59-29.5,41.59-18.87,0-29.86-20.7-29.86-49.65s11.36-52.76,30.6-52.76c17.59,0,27.66,18.5,27.66,45.8h-47.63v3.48c0,24,8.06,43.79,22.53,43.79,8.43,0,18.14-7.14,22.35-32.24h3.85ZM1052.41,154.51h36.46c0-16.67-4.4-33.34-16.67-33.34s-18.14,15.39-19.79,33.34Z"/>
  <path class="cls-1" d="M1175.89,195c-.18,12.46-3.3,22.35-13.19,22.35-8.24,0-13.01-6.6-13.01-20.15v-7.33c-4.95,18.14-14.29,27.48-26.2,27.48s-18.69-9.71-18.69-21.25c0-22.72,24.73-33.34,44.88-43.05v-10.44c0-15.94-5.86-21.62-15.57-21.62-7.88,0-13.92,3.85-13.92,10.63,0,4.4,2.56,6.05,2.56,9.89s-2.2,6.41-6.23,6.41c-4.95,0-7.51-4.21-7.51-10.08,0-12.82,11.54-23.08,26.93-23.08,13.74,0,23.82,8.24,23.82,27.66v56.24c0,10.08,2.38,12.27,5.31,12.27,3.85,0,6.78-3.66,6.96-15.94h3.85ZM1149.69,180.16v-21.8c-16.49,8.79-34.26,17.77-34.26,35.18,0,8.24,3.66,14.47,11.18,14.47,8.24,0,17.4-7.88,23.08-27.85Z"/>
  <path class="cls-1" d="M1247.71,208.55l-20.15,8.79-2.56-2.2v-14.66h-.73c-4.4,10.08-11.91,16.85-22.9,16.85-17.4,0-26.56-21.25-26.56-48.55,0-29.13,10.63-53.86,30.41-53.86,8.98,0,15.57,3.66,19.6,10.08h.18v-39.76c0-11.36.37-13.37-10.63-8.43l-1.65-3.48,20.7-9.34,1.83,2.02v130.26c0,11.54-.18,13.56,10.81,8.79l1.65,3.48ZM1225,192.07v-36.46c0-19.79-6.41-33.53-18.5-33.53-15.21,0-20.7,21.43-20.7,42.87,0,24.55,5.86,43.24,19.05,43.24,9.89,0,15.57-7.88,20.15-16.12Z"/>
  <path class="cls-1" d="M1240.39,246.48c0-3.85,2.56-6.41,6.23-6.41s5.5,2.56,7.14,5.13c1.65,3.11,3.11,4.03,5.86,4.03,5.5,0,10.26-9.16,14.84-25.47.92-3.11,1.47-8.79,1.28-13.19l-22.9-75.66c-3.3-10.99-6.05-13.01-14.29-13.01v-3.85h34.81v3.85c-12.46,0-12.27,2.02-9.16,13.01l17.4,61.56h.73l16.49-61.56c3.11-10.99,3.11-13.01-9.16-13.01v-3.85h28.4v3.85c-7.33,0-9.89,2.02-13.01,13.01l-21.43,76.95c-6.78,24.37-13.56,45.07-29.5,45.25-7.88,0-13.74-4.4-13.74-10.63Z"/>
  <path class="cls-1" d="M1415.57,110.35c0,25.21-19.13,45.3-44.13,45.3s-43.91-20.19-43.91-45.3,18.81-44.66,43.91-44.66,44.13,19.55,44.13,44.66ZM1412.25,110.67c0-23.08-17.74-41.67-40.92-41.67s-40.49,18.59-40.49,41.67,17.31,41.67,40.49,41.67,40.92-18.59,40.92-41.67ZM1384.9,129.15c3.52,6.3,5.56,6.94,10.58,7.05v2.14h-5.66c-4.49,0-6.63-1.92-8.87-5.77l-10.58-19.02c-1.28.11-2.67.21-4.06.21h-4.7v14.32c0,6.52.54,8.02,6.52,8.02v2.24h-16.88v-2.24c5.13,0,5.56-1.5,5.56-8.02v-35.04c0-6.52-.43-8.02-5.56-8.02v-2.24h16.78c5.45,0,20.3.75,20.3,14.64,0,8.12-5.02,13.78-14.42,15.6,1.71.75,3.31,2.67,5.45,6.41l5.56,9.72ZM1365.88,110.67c11.01,0,17.2-4.7,17.2-12.93s-5.77-11.86-14.53-11.86c-2.67,0-5.13.32-6.94.96v23.83h4.27Z"/>
</svg>